<svg id="Calque_1" data-name="Calque 1" xmlns="http://www.w3.org/2000/svg" viewBox="0 0 1630.28 709.25"><defs><style>.cls-1{font-size:222px;font-family:ArialRoundedMTBold, Arial Rounded MT Bold;}.cls-1,.cls-5{fill:#3f55ff;}.cls-2,.cls-4{fill:#000;}.cls-3{fill:#bf0010;}.cls-4{font-size:294.51px;font-family:ReemKufi-Regular, Reem Kufi;}.cls-6{fill:none;stroke:#3f55ff;stroke-miterlimit:10;stroke-width:12px;}</style></defs><title>plan logo followl me</title><text class="cls-1" transform="translate(0 254.02) scale(1.01 1)"><tspan xml:space="preserve">F   ll   wl</tspan><tspan class="cls-2" x="828.06" y="0" xml:space="preserve">  </tspan><tspan class="cls-3" x="939.05" y="0">me</tspan><tspan class="cls-4" x="1267.39" y="0"> </tspan></text><path class="cls-5" d="M668.22,479.87a73.34,73.34,0,0,1-13.54-22.66c-1.85-4.71-4.24-10.78-4.88-18.88-1.39-17.84,6.87-31.42,9.61-35.81a68.22,68.22,0,0,1,22.19-21.75c5.82-3.68,16.74-10.42,32.44-11.38,17.89-1.1,31.07,6,37.64,9.58A68,68,0,0,1,773.4,397.1a64.45,64.45,0,0,1,12.46,28.55,62.43,62.43,0,0,1-3.22,32.77,63.44,63.44,0,0,1-9.6,16,79,79,0,0,1-20.42,18.47c-5.79,3.54-16.37,10-31.6,10.7A61.93,61.93,0,0,1,693.09,498,71.89,71.89,0,0,1,668.22,479.87Zm111.7-46A40.54,40.54,0,0,0,773.25,411c-11-17.18-35.89-20.57-51.39-6.93-2.55,2.24-2.11,2.15-4.5,0-10.43-9.41-27.09-11.22-39.32-4.15-12.53,7.23-18,18.47-18.66,32s4.42,25.36,12.82,35.91C683,481.4,697.11,490.63,714,496a17.7,17.7,0,0,0,11.19,0,85,85,0,0,0,40.61-26.65C774.51,459,779.78,447.33,779.92,433.84Z" transform="translate(-212.26 -233.67)"/><path class="cls-5" d="M711.85,459.89a25.21,25.21,0,0,0-4.64-7.39c-.35-.36-.63-.78-1-1.16-2.34-2.73-4.6-4.23-9-3.32-9.5,2-17.35-3.23-20.08-12.22-.65-2.17-1.05-4.42-2.21-6.44-.6-1-.1-1.45,1-1.39,5.46.26,10.94-.24,16.37.53,7.07,1,13.16,5.7,13.15,13.42a4.34,4.34,0,0,0,.88,2.34A44.66,44.66,0,0,1,712.18,458,1.72,1.72,0,0,1,711.85,459.89Z" transform="translate(-212.26 -233.67)"/><path class="cls-5" d="M724.65,459.75c-.49-1.65.09-2.84.39-4a33.82,33.82,0,0,1,3-7.31c1.58-3.07,3.35-5.9,3.77-9.58.64-5.54,6.38-9.59,13-10.4,5.23-.63,10.49-.22,15.72-.47,1.5-.07,1.62.61,1.09,1.71a37.66,37.66,0,0,0-2.25,6.67c-2.08,7.84-9,12.09-17.7,11.95a6.64,6.64,0,0,1-2.42-.21c-4.68-2-7,1.11-9.5,3.93a28.94,28.94,0,0,0-4,5.89C725.53,458.45,725.16,459,724.65,459.75Z" transform="translate(-212.26 -233.67)"/><path class="cls-5" d="M711.94,466.94c-.05-3,2.86-7.23,5.81-8.47a1.63,1.63,0,0,1,1.82.31c1.49,1.16,2.94,2.36,4.39,3.56a3.36,3.36,0,0,1,.94,2.94,41.55,41.55,0,0,1-5.41,20.57c-.31.54-.51,1.32-1.33,1.24s-1-.81-1.24-1.37A44.66,44.66,0,0,1,711.94,466.94Z" transform="translate(-212.26 -233.67)"/><path d="M845.7,730" transform="translate(-212.26 -233.67)"/><path d="M751.45,692.47" transform="translate(-212.26 -233.67)"/><path class="cls-6" d="M424.47,377.89h-5c-35.54,1.25-64.68,32.55-61.27,70a64.05,64.05,0,0,0,127.71-2.17A61.85,61.85,0,0,0,473.5,404C461.29,387.75,444.78,379.28,424.47,377.89Z" transform="translate(-212.26 -233.67)"/><path class="cls-5" d="M387.14,406.62l38.06,26.63c-7.85-1.6-13.31,4.24-11.67,11.75-9.07-12.94-17.88-25.51-26.68-38.09Z" transform="translate(-212.26 -233.67)"/><path class="cls-5" d="M419.56,450.89a9.68,9.68,0,0,0,11.55-11.62L457.51,477l-.28.29Z" transform="translate(-212.26 -233.67)"/><path class="cls-5" d="M422.39,392.27c1.72,9.72,3.43,19.44,5.12,29H416.84c1.68-9.54,3.4-19.28,5.12-29Z" transform="translate(-212.26 -233.67)"/><path class="cls-5" d="M372.46,441.72l29-5.12v10.66l-29-5.12Z" transform="translate(-212.26 -233.67)"/><path class="cls-5" d="M471.89,442.14l-29,5.12V436.6l29,5.11Z" transform="translate(-212.26 -233.67)"/><path class="cls-5" d="M416.83,462.6H427.5c-1.67,9.51-3.39,19.26-5.11,29l-.42,0C420.25,481.92,418.53,472.19,416.83,462.6Z" transform="translate(-212.26 -233.67)"/><path class="cls-5" d="M395.84,468l9-13.34,4.54,4.61-13.3,9Z" transform="translate(-212.26 -233.67)"/><path class="cls-5" d="M435,424.55c4.16-2.81,8.67-5.88,13.18-8.94l.33.25-9,13.24Z" transform="translate(-212.26 -233.67)"/></svg>