<?xml version="1.0" encoding="utf-8"?>
<!-- Generator: Adobe Illustrator 23.0.3, SVG Export Plug-In . SVG Version: 6.00 Build 0)  -->
<svg version="1.1" id="Calque_1" xmlns="http://www.w3.org/2000/svg" xmlns:xlink="http://www.w3.org/1999/xlink" x="0px" y="0px"
	 viewBox="0 0 6074.88 2956.66" style="enable-background:new 0 0 6074.88 2956.66;" xml:space="preserve">
<style type="text/css">
	.st0{fill:#9F9FFE;}
	.st1{fill:#FEFEFE;}
</style>
<g>
	<path class="st0" d="M2886.65,2206.76c-15.67,23.31-25.79,47.16-29.22,71.44c-10.59,74.97-49.71,139.83-70.95,210.89
		c-15.86,53.05-35.01,105.32-47.5,159.14c-17.14,73.91-49.6,96.57-123.76,79.25c-36.23-8.46-73.25-13.64-107.96-28.06
		c-28.56-11.86-32.43-25.03-11.07-47.39c31.01-32.47,62.83-64.19,95.04-95.49c88.09-85.61,150.28-189.99,212.32-294.21
		c27.11-45.55,53.39-92.2,66.84-144.37c3.19-12.39,16.99-27.65-0.31-36.89c-17.95-9.59-23.63,9.83-29.64,20.88
		c-29.56,54.32-59.39,108.58-86.41,164.18c-15.63,32.15-37.71,59.3-57.69,88.18c-27.49,39.74-67.8,35.09-107.13,28.99
		c-16.46-2.55-32.05-11.48-47.68-18.33c-10.94-4.79-21.73-10.94-19.99-25.66c1.5-12.64,8.63-21.02,20.51-26.37
		c31.11-14.01,61.31-30.25,92.98-42.81c63.89-25.36,104.25-76.23,142.79-128.89c18.85-25.76,32.76-55.18,51.99-80.62
		c35.66-47.18,31.38-99.28,24.89-152.93c-5.91-48.85-22.42-95.02-33.17-142.62c-3.11-13.78-11.39-25.4-22.73-34.13
		c-10.56-8.12-22.58-14.93-34.81-4.59c-12.26,10.37,0.77,19.23,4.48,27.94c20.68,48.52,34.01,99,33.18,151.7
		c-0.83,52.92,8.14,106.46-12.35,158.49c-24.73,62.8-130.27,122.69-187.65,103.97c-33.33-10.88-36.02-22.26-14.66-49.51
		c47.87-61.06,81.38-127.76,76.14-208.37c-1.97-30.33,7.6-54.49,35.42-69.69c12.53-6.85,20.85-17.51,13.6-31.45
		c-7.24-13.94-19.32-3.83-28.25-0.74c-18.86,6.53-36.86,8.75-56.09,1.18c-7.47-2.94-17.48-3.82-22.75,5.63
		c-4.11,7.37-0.15,13.99,3.17,21c33.01,69.61,7.94,182.41-36.4,238.27c-50.53,63.67-115.56,83.07-192.92,74.48
		c-13.89-1.54-25.72-5.01-30.11-19.17c-4.71-15.19,6.71-22.3,16.56-31.23c50.33-45.6,83.75-98.37,86.04-170.32
		c2.25-70.8-10.95-139.98-12.85-210.11c-0.26-9.5-0.67-19.84,2.62-28.4c6.02-15.69,17.48-21.91,32.31-9.23
		c9.73,8.32,18.27,18.02,27.79,26.6c4.79,4.32,11.18,8.05,16.69,1.64c4.67-5.43,3.78-12.48-1.1-17.44
		c-5.19-5.27-11.35-9.74-17.55-13.85c-64.6-42.78-137.23-67.83-209.88-91.82c-43.73-14.44-49.17-1.97-47.63,43.35
		c3.07,90.41,9.04,181.1-4.28,271.63c-8.17,55.55-26.21,104.36-66.6,144.87c-45.77,45.9-137.44,48.84-176.76,29.06
		c-29.8-14.99-31.52-27.85-6.58-50.12c23.64-21.11,50.37-37.71,71.89-62.48c38.44-44.23,58.86-92.72,58.03-151.13
		c-0.8-56.66,1.27-113.39-0.76-169.99c-1.1-30.65,8.48-51.6,36.51-64.2c5.43-2.44,13.2-4.29,13.31-12.11
		c0.14-9.38-8.28-11.4-15-14.28c-17.81-7.62-37.64-7.8-55.54-12.94c-63.61-18.25-124.79-42.28-175.68-87.62
		c-34.29-30.55-50.87-64.79-48.35-112.27c4.2-79.06-0.54-67.98-66.53-67.55c-28.05,0.18-55.37-0.82-81.44-12.61
		c-14.83-6.71-30.71-8.69-46.98-7.59c-48.49,3.29-94.52-11.15-141.08-20.65c-39.9-8.14-80.31-3.42-120.67-10.24
		c-101.35-17.14-204.31-23.26-306.33-35.32c-67.05-7.93-133.98-17.9-199.27-48.52c-72.96-34.22-153.74-55.98-234.49-71.71
		c-9.21-1.79-17.91-6.83-26.48-11.09c-31.52-15.66-64.01-26.54-98.58-35.49c-69.88-18.09-137.53-44.94-205.87-68.8
		c-45.18-15.78-89.05-35.17-136.32-45.05c-15.28-3.19-29.71-11.73-43.74-19.28c-10.48-5.64-20.89-13.88-14.22-28.01
		c6.42-13.61,18.97-17.38,32.57-12.38c41.16,15.14,84.44,22.36,126.3,34.56c157.4,45.86,316.4,85.84,473.9,131.49
		c100.77,29.21,204.26,50.3,305.96,77.64c123,33.06,248.83,54.45,372.6,84.86c36.51,8.97,73.14,23.43,112.06,22.18
		c7.72-0.25,20.11,3.65,20.52-8.55c0.35-10.38-11.22-9.85-19.48-11.98c-68.69-17.71-138.36-30.93-205.81-54.42
		c-52.9-18.43-108.88-28.01-163.44-41.73c-17.53-4.41-35.05-8.98-52.3-14.36c-105.31-32.83-212.73-57.68-320.02-82.64
		c-71.18-16.55-136.63-47.72-204.17-73.37c-95.62-36.33-189.69-76.75-284.42-115.42c-6.92-2.82-15.16-4.12-20.53-8.74
		c-58.82-50.65-136.9-63.11-201.41-102.31c-9.06-5.5-18.14-11.17-26.33-17.85c-7.12-5.81-9.14-14.45-6.73-23.37
		c2.94-10.85,12.47-9.76,20.86-10.74c27.58-3.2,50.64,9.28,75.96,17.5c52.7,17.11,104.4,37.02,157.12,54.02
		c88.06,28.41,175.14,59.87,263.03,88.83c68.62,22.62,137.92,43.17,206.76,65.15c18.2,5.81,35.79,13.5,53.69,20.26
		c110.74,41.82,225.73,70.15,338.26,106.31c65.59,21.08,131.96,39.26,198.96,55.9c45.75,11.36,88.84,38.04,135.41,47.44
		c92.49,18.67,173.84,69.68,266.46,86.75c12.41,2.29,25.11,6.65,27.63-9.96c2.37-15.63-10.74-17.51-23.23-19.56
		c-62.09-10.22-119.27-34.22-176.26-60.26c-51.86-23.7-103.21-52.73-163.66-48c-23.39,1.83-44.92-5.4-65.06-14.46
		c-84.76-38.15-173.59-66.44-260.97-96.2c-107.55-36.63-214.51-76.28-324.59-106.27c-63.56-17.32-130.06-29.91-189.31-56.25
		c-57.4-25.52-119.52-44.77-170.38-84.7c-6.66-5.23-14.09-9.86-21.84-13.24C300.66,602,178.96,514.44,49.52,440.5
		c-16.22-9.26-29.6-24.62-42.03-39.1c-14.73-17.14-6.4-26.38,13.57-29.83c30.59-5.27,54.38,13.61,76.67,26.97
		c44.13,26.45,91.62,45.44,136.78,69.37c145.92,77.33,293.39,151.75,440.38,227.07c29.42,15.07,59.47,26.54,93.31,30.9
		c26.82,3.45,45.31,29.06,70.82,40.33c20.39,9.01,41.69,16.33,61.54,26.76c7.7,4.04,18.39,6.4,23.6-1.49
		c6.15-9.31-3.72-15.9-10.28-20.44c-36.17-25-78.11-38.49-117.59-56.75c-80.35-37.16-150.69-85.94-209.55-153.23
		c-32.63-37.31-73.22-67.83-111.3-100.14c-28.59-24.27-56.2-48.61-76.02-81.38c-9.18-15.18-23.04-28.51-37.25-39.49
		c-71.6-55.32-115.62-136.16-182.41-195.89c-9.26-8.28-17.73-20.78-5.27-33.49c12.43-12.68,26.36-9.4,36.43,2.42
		c35.6,41.82,83.23,69.84,121.71,108.54c71.41,71.82,149.74,135.83,228.54,199.52c88.55,71.57,177.98,141.98,267.14,212.77
		c13.65,10.84,29.06,17.92,44.46,25.17c7.63,3.59,17.54,6.7,22.9-2.71c5.06-8.87-0.87-17.92-8.04-22.08
		c-28.89-16.76-42.43-47.35-64.81-69.56c-58.26-57.79-98.2-127.89-139.04-197.63c-13.85-23.66-31.05-44.61-42.55-70.54
		c-34.6-78.02-60.64-159.08-90.99-238.59c-4.71-12.33-6.41-24.71-5.77-37.64c0.42-8.62,0.22-17.7,11.6-19.85
		c9.39-1.78,16.83,1.3,21.86,9.56c4.43,7.29,10.63,14.13,12.79,22.06c15.24,55.89,42.3,107.04,62.76,160.64
		c20.48,53.66,53.49,99.39,78.78,149.76c32.68,65.11,78.54,121.6,128.23,174.69c10.07,10.76,21.7,20.58,34.08,28.55
		c27.26,17.54,34.14,50.59,57,71.51c69.4,63.5,147.87,114.6,224.33,168.73c56.37,39.9,118.54,69.74,176.06,108.02
		c80.28,53.43,168.66,96.36,264.92,123.67c64.08,18.18,127.77,45.62,189.95,73.25c78.87,35.05,159.26,62.5,246.5,73.37
		c108.29,13.49,216.99,31.11,322.28,59.09c109.1,28.99,213.48,74.3,303.07,146.75c17.69,14.31,30.71,32.45,42.58,51.69
		c5.62,9.11,13.28,18.41,25.87,14.33c12.79-4.15,12.12-16.22,12.04-26.93c-0.05-6.36,0.28-13.35-2.1-18.97
		c-30.04-70.94-13.64-145.52-17.21-218.49c-0.45-9.17,2.26-19.48,6.49-27.73c23.39-45.71,35.29-95.67,53.43-143.29
		c8.15-21.41,19.69-32.18,41.95-30.82c25.29,1.55,47.2-0.99,65.65-23.3c14.24-17.22,35.54-9.95,53.42-1.2
		c32.14,15.72,60.08,19.72,82.34-17.31c11.32-18.84,31.34-10.91,41.15,1.42c27.02,33.98,56.6,32.19,90.5,13.6
		c16.97-9.31,35.05-7.11,46.79,7.47c15.01,18.65,33.51,20.96,54.37,19.15c34.08-2.96,51.39,15.71,59.22,45.99
		c11.72,45.32,18.65,92.03,41.33,134.07c3.3,6.12,3.51,14.57,3.2,21.86c-3.43,78.43,11.51,158.19-17.95,234.87
		c-4.75,12.36-5.02,28.35,8.67,38.1c15.87,11.3,21.61-6.53,31.86-11.93c49.42-26.01,76.23-80.06,130.77-100.98
		c93.48-35.86,187.53-66.71,287.28-81.75c68.05-10.26,136.52-17.67,204.36-29.38c36.56-6.31,73.92,2.04,110.86-11.35
		c61.9-22.44,125.98-38.8,188.45-59.76c86.37-28.99,171.82-60.75,258.26-89.53c36.71-12.22,70.65-28.89,104.53-47.27
		c140.44-76.18,277.24-158.36,407.8-250.31c37.1-26.13,70.6-58.98,94.32-99.24c29.14-49.47,79.63-78.6,114.37-123.76
		c68.09-88.52,121.08-185.52,172.17-283.69c20.49-39.37,32.07-83.43,46.96-125.62c5.29-14.99,10.99-31.68,29.81-25.1
		c19.39,6.78,16.83,24.38,9.98,40.58c-30.65,72.47-48.56,150.2-87.55,219.11c-53.92,95.32-100.43,195.61-181.74,273
		c-26.15,24.89-42.77,58.52-70.72,82.27c-4.98,4.23-8.36,10.26-3.87,16.96c4.2,6.27,10.27,6.36,17.02,4.23
		c29.58-9.35,59.84-17.92,83.61-38.89c68.79-60.68,144.47-112.47,216.16-169.36c34.96-27.75,71-54.19,103.62-85.16
		c40.07-38.05,87.85-67.24,126.64-107.18c39.22-40.38,81.42-77.62,125.01-113.26c9.46-7.74,18.38-22.63,31.82-8.9
		c10.28,10.5,6.63,24.11-2.7,34.79c-89.64,102.61-185.08,199.68-282.56,294.77c-87.87,85.72-187.85,158.25-277.89,255.05
		c43.85-6.49,79.47-13.76,113.47-30.12c65.19-31.38,128.22-66.9,195.43-94.54c60.1-24.72,117.13-56.83,175.91-84.87
		c62.51-29.83,125.89-57.9,183.34-97.26c5.14-3.52,11.58-5.98,17.74-7.02c10.63-1.79,22.28-2.77,28.09,9.21
		c4.82,9.94-0.31,18.09-6.87,26.05c-15.31,18.56-36.07,30.71-55.63,42.83c-45.14,27.98-82.74,66.51-131.97,88.94
		c-72.86,33.2-140.33,76.85-211.08,114.14c-65.92,34.74-131.56,74.06-202.19,94.63c-64.72,18.85-130.03,38.79-196.62,52.76
		c-39.17,8.22-75.75,26.93-115.23,36.67c-155.2,38.27-305.25,93.86-458.45,138.91c-7.08,2.08-14.84,4.54-21.88,3.65
		c-62.11-7.83-115.69,18.41-172.52,37.03c-51.69,16.94-97.11,49.28-151.61,57.82c-7.29,1.14-14.25,4.46-21.34,6.83
		c-10.28,3.43-23.81,8.04-20.91,19.91c3.41,13.94,17.63,7.98,27.27,5.3c32.83-9.14,65.35-19.42,98.14-28.74
		c97.31-27.63,193.6-60.38,292.47-80.34c53.67-10.83,100.83-42.38,159.19-39.88c31.84,1.37,61.03-27.25,95.05-34.5
		c87.39-18.63,170.3-55.22,256.7-74.37c89.77-19.89,176.41-48.8,263.56-75.35c97.45-29.68,195.62-57.69,292.42-90.08
		c53.89-18.03,109.39-32.76,163.06-52.68c12.37-4.59,27.19-6.83,34.01,7.55c8.16,17.21-6.57,23.96-18.77,31.36
		c-134.59,81.76-278.48,142.51-426.47,195.64c-82.19,29.5-165.37,56.39-247.3,86.84c-37.15,13.81-78.59,23.08-119.52,27.91
		c-9.46,1.11-19.19,2.44-28.04,5.73c-89.13,33.12-184.16,42.26-275.22,68.42c-84.35,24.23-172.15,36.37-258.25,54.69
		c-22.43,4.77-45.22,10.27-67.85,27.92c22.98,8.13,42.6-0.07,57.51-5.28c47.39-16.55,97.27-5.4,145.19-20.15
		c55.35-17.05,113.47-26.01,170.94-34.98c73.39-11.45,144.44-34.41,219.1-40.34c35.35-2.81,68.52-20.56,103.61-29.32
		c70.08-17.5,141.58-27.8,211.42-45.82c72.13-18.6,143.97-38.39,216.23-56.44c76.31-19.06,153.03-36.5,229.45-55.15
		c10.24-2.5,19.46-4.6,24.6,6.7c5.23,11.47,0.76,21.4-9.32,27.64c-10.84,6.71-22.05,14.13-34.13,17.31
		c-85.58,22.55-169.22,51.25-253.34,78.42c-118.55,38.29-236.85,77.41-355.82,114.33c-62.9,19.52-129.58,26.55-189.31,56.86
		c-2.74,1.39-6.28,2.09-9.34,1.83c-67.42-5.67-132.66,18.22-200.43,13.42c-43.32-3.07-86.72,5.76-129.3,15.86
		c-10.22,2.43-21.17,3.44-31.66,2.86c-79.17-4.37-156.66,10.36-234.67,19.51c-20.06,2.35-40.57,0.95-60.88,1.24
		c-31.92,0.45-63.44-0.74-95.08,9.38c-20.6,6.59-44.14,6.2-64.23-9.29c-22.9-17.64-29.97-4.1-30.92,17.82
		c-1.56,36-0.98,71.31-10.16,107.6c-11.15,44.11-42.14,65.48-75.25,85.42c-33.4,20.11-71.01,30.98-109.72,39.45
		c-36.56,8-73.59,18.87-110.6,46.01c53.14,12.85,57.68,47.42,63.79,90.14c6.91,48.36-3.48,94.09-3.6,140.95
		c-0.24,93.99,30.59,168.45,112.98,218.34c12.48,7.56,26.26,16.51,22.68,35.14c-3.34,17.39-17.04,22.42-31.93,27.35
		c-84.93,28.1-164.04-13.59-199.31-95.68c-44.85-104.39-33.62-211.21-23.18-317.87c6.59-67.38,11.07-66.95,48.45-96.94
		c-36.78-12.38-73.56-3.53-102.79,6.88c-51.16,18.21-105.91,24.05-155.09,48.46c-26.11,12.96-42.39,35.24-62.05,54.49
		c-4.89,4.78-5.82,11.66,0.06,17.06c7.55,6.94,14.44,2.73,19.25-3.29c12.51-15.64,24.09-39.64,47.38-26.82
		c22.29,12.27,12.93,39.83,9.95,59.15c-13.46,87.33-2.61,174.91-6.14,262.26c-0.79,19.69,9.35,34.46,22.58,47.76
		c17.33,17.43,35.83,33.97,51.22,53.01c17.15,21.22,8.56,39.29-18.21,41.92c-86.25,8.46-158.39-15.88-197.43-98.1
		c-15.41-32.45-33.18-67.23-29.74-105.99c4-44.93-12.2-92.1,15.58-134.58c6.16-9.41-2.02-15.45-10.33-12.09
		c-25.26,10.2-48.18,2.31-71.52-5.84c-8.02-2.8-17.71-6.45-23.11,2.8c-6.08,10.43,0.6,18.08,9.61,23.65
		c23,14.23,28.29,36.08,26.39,61.09c-6.77,89.17,27.85,164.46,79.11,233.92c7.26,9.84,15.54,18.65,8.95,31.36
		c-5.34,10.31-16.64,17.24-26.47,15.08c-32.84-7.2-67.91-5.9-98.39-22.26c-74.74-40.12-103.48-104.86-103.07-187.61
		c0.3-60.31,7.22-118.28,31.55-174c6.63-15.17,12.89-29.08,27.37-37.98c8.93-5.48,14.77-13.06,11.1-23.96
		c-3.54-10.51-13.05-13.61-22.93-14.48c-21.51-1.9-37.22,7.6-47.37,26.22c-25.29,46.37-40.08,96.2-44.58,148.58
		c-2.1,24.51-13.4,46.66-12.28,72.19c2.51,57.53,31.79,102.87,63.46,146.78c22.36,31,42.41,63.49,69.56,91.56
		c45.22,46.76,95.4,84.88,154.53,111.84c20.12,9.17,46.76,20.1,41.61,45.72c-4.93,24.53-34.16,26.88-55.74,29.94
		c-22,3.13-44.83,1.55-67.23,0.51c-19.61-0.91-32.99-12.88-44.13-28.4c-51.78-72.08-87.52-153.02-128.59-231.03
		c-3.46-6.57-7.4-13.01-11.97-18.85c-6.64-8.49-10.41-26.48-24.49-18.31c-9.95,5.77-4.83,21.43-1.56,32.79
		c18.77,65.16,49.25,124.96,84.15,182.68c41.82,69.17,83.29,138.67,134.18,201.72c30.76,38.1,63.76,74.37,95.62,111.59
		c11.78,13.76,24.27,27.1,34.45,41.99c22.3,32.59,15.94,53.8-23.15,57.11c-45.55,3.86-89.39,18.21-136.09,16.24
		c-33.79-1.42-51.53-15.43-61.1-44.96c-25.25-77.94-46.3-156.99-66.11-236.51c-22.1-88.72-57.67-173.19-88.45-259.15
		c-2.14-5.97-4.14-13.47-12.78-9.53c-6.81,3.1-7.45,9.9-5.24,16.54c18.5,55.67,25.39,114.37,36.15,171.31
		c11.06,58.49,25.87,116.56,41.06,173.16c19.65,73.24,38.82,148.36,76.62,216.34c29.25,52.61,11.5,79.18-49.53,79.95
		c-8.55,0.11-17.11,0.02-25.66,0.02c-65.01,0-76.41-14.67-81.49-78.02c-6.17-77.02-9.09-154.75-28.46-230.33
		c-2.85-11.14-2.16-23.29-2.37-34.98c-1.4-74.48-7.01-148.41-18.05-222.3c-6.25-41.86-4.92-85.67-0.92-128.03
		c4.62-48.87-15.86-94.08-14.08-142.31c1.05-28.35,7.08-46.2,39.7-42.75c4.1,0.43,8.65-0.55,12.58-2
		c9.04-3.34,24.87,1.15,23.94-14.81c-0.93-15.92-14.4-18.47-28.08-20.05c-20.55-2.38-48.44,10.73-56.92-20.75
		c-8.62-32.01-1.78-62.89,23.2-85.18c17.16-15.31,25.99-25.05,0.76-39.58c-9.61-5.53-12.51-16.75-14.23-27.64
		c-4.87-30.86,7.64-58.81,15.08-87.49c1.34-5.15,8.48-12.28,13.2-12.49c27.11-1.19,45.93-9.2,53.09-39.48
		c3.01-12.72,16.92-7.61,25.95,1.02c7.28,6.96,14.31,21.84,25.21,14.65c15.71-10.37,6.59-29.42,7.19-44.65
		c0.5-12.56-7.87-19.07-20.64-19.38c-22.37-0.54-45.19-3.94-59.45,20.6c-11.03,18.98-24.91,22.34-39.98,3.21
		c-7.23-9.18-16.68-13.63-28.28-9.53c-12.71,4.5-11.82,15.85-13.04,26.61c-3.55,31.25-25.13,56.01-49.3,52.92
		c-28.69-3.67-46.18-20.49-45.42-51.93c0.27-11.05-2.37-21.93-13.46-27.01c-12-5.49-20.4,2.09-27.52,10.59
		c-13.32,15.91-24.98,12.76-36.06-2.49c-10.49-14.43-24.54-22.62-42.05-26.85c-40.46-9.78-44.64-6.99-42.35,34.43
		c1.18,21.38,2.35,41.87,29.57,14.49c12.16-12.23,24.29-4.02,29.64,10.28c7.63,20.41,20.05,31.76,43.09,30.29
		c11.86-0.75,22.1,6.39,23.79,17.68c4.37,29.35,18.89,66.24,6.82,87.02c-21.69,37.32-10.32,64.58,2.26,96.88
		c4,10.27,0.85,23.28,1.16,35.03c0.7,26.82-12.53,38.73-39.09,39.09c-18.25,0.25-47.4-5.47-47.76,17.8
		c-0.36,22.98,29.02,17.8,47.01,18.91c20.91,1.29,33.26,10.77,31.38,31.71c-5.49,61.15-11.35,122.3-19.36,183.16
		c-2.24,16.97-4.77,33.72-4.45,50.77c0.93,49.18-1.37,97.86-18.3,144.83c-2.1,5.82-1.87,12.64-1.97,19
		c-1.67,111.91-15.27,222.25-41.77,331.09c-3.71,15.24-1.28,31.9-2.38,47.86c-2.77,40.33-21.17,58.47-61.01,57.78
		c-27.32-0.47-55.2,5.36-81.55-9.68c-22.73-12.96-30.61-28.8-18.39-52.6c33.62-65.45,51.84-136.77,78.58-204.81
		c43.41-110.45,64.47-226.17,86.44-341.83C2892.47,2228.75,2895.14,2218.75,2886.65,2206.76z M3969.91,1771.43
		c1.31,0.97,2.61,1.94,3.92,2.91c-0.95-1.32-1.91-2.64-2.86-3.96c-1.24-0.9-2.48-1.81-3.73-2.71
		C3968.12,1768.92,3969.01,1770.19,3969.91,1771.43z M2120.49,1258.78c-38.17,7.2-76.97,0.28-115.06,4.38
		c-60.95,6.55-115.34,49.87-72.43,124.1c21.98,38.02,54.97,61.75,95.67,75.53c44.29,15,89.73,26.4,134.37,39.85
		c60.83,18.32,122.52,34.14,183.18,53.29c58.54,18.49,113.1,42.45,166.47,71.03c13.19,7.06,22.9,17.84,31.67,30.72
		c22.72,33.36,40.84,70.03,71.24,98.05c32,29.5,56.52,25.15,73.61-14.99c8.37-19.67,13.26-46.68,31.86-53.95
		c49.83-19.47,56.08-51.18,38.19-95.33c-1.5-3.7,0.17-8.57-0.55-12.73c-5.85-33.94-13.91-66.77-41.74-90.82
		c-29.02-25.08-56.1-52.64-86.64-75.65c-32.96-24.83-64.97-53.51-106.73-62.67c-85.08-18.68-165.93-53.35-253.22-64.02
		C2220.08,1279.42,2170.44,1267.85,2120.49,1258.78z M4183.36,1400.07c-0.01-59.08-11.65-78.68-68.12-83.28
		c-63.57-5.18-128.24-4.73-191.85,0.42c-75.98,6.15-150.6,22.87-225.28,39.73c-67.95,15.34-134.83,31.22-194.86,66.57
		c-74.39,43.81-134.42,101.63-152.61,190.31c-4.96,24.16-16.05,57.61,15.46,71.52c28.79,12.71,44.5,28.75,49.47,59.78
		c3.79,23.65,15.41,46.92,42.47,50.37c25.59,3.26,41.84-14.05,57.32-33.62c29.93-37.86,45.04-88.76,93.45-110.63
		c35.6-16.08,70.59-35.64,108.02-45.12c113.02-28.62,227.59-51.15,340.57-79.9C4123.78,1509.31,4192.53,1467.31,4183.36,1400.07z
		 M3060.05,1523.8c93.45,20.7,163.4-25.56,230.96-78.55c11.27-8.84,16-20.32,11.67-33.96c-4.08-12.87-15.85-12.54-26.62-12.58
		c-39.55-0.15-79.17,1.31-118.62-0.7c-29.8-1.52-52.8,5.04-72.68,29.54c-20.11,24.79-33.9,22.69-52.93-4.22
		c-8.48-12-17.12-23.66-31.86-23.94c-51.28-0.97-102.59-0.85-153.87,0.09c-14.08,0.26-24.36,10.79-14.17,23.56
		c20.59,25.78,41.14,57.45,70.95,67.94C2953.52,1508.81,3001.28,1546.76,3060.05,1523.8z M2866.69,1236.8
		c-0.88,19.37,8.19,35.16,26.03,38.75c21.05,4.24,18.22-15.07,19.36-28.24c1.37-15.88,9.64-25.05,25.27-28.16
		c13.83-2.75,36.16-0.25,34.19-19.42c-2.3-22.45-25.57-10.28-39.65-13.25c-4.06-0.86-8.48-0.27-12.71-0.02
		C2893.26,1188.03,2867.53,1212.76,2866.69,1236.8z M3218.41,1186.34c-10.61,4.29-32.53-9.12-35.85,11.19
		c-3.9,23.83,19.99,18.47,34.02,21.99c17.29,4.35,21.64,18.26,26.01,32.85c2.98,9.94-0.88,26.6,17.69,24.04
		c14.51-2,20.59-14.09,23.49-26.99C3291.8,1213.66,3264.42,1186.48,3218.41,1186.34z M2884.38,1790.03
		c10.93-20.86,38.83-19.31,52.88-37.21c4.77-6.08,1.63-17.76-6.91-22.14c-16.87-8.65-34.24-16.55-51.99-23.19
		c-9.19-3.44-18.21,0.95-17.14,11.99c1.83,18.74,5.51,37.35,9.26,55.84C2871.69,1781.34,2874.89,1787.38,2884.38,1790.03z
		 M3218.46,1829.41c17.17-35.2,26.27-65.54,18.68-93.92c-6.33-23.68-28.89-0.26-44.29-2.49c-10.77-1.56-20.5,6.06-21.97,18.52
		c-0.38,3.19,3.19,9.25,6.04,10.04C3206.89,1769.81,3210.1,1796.47,3218.46,1829.41z M2879.47,1853.19
		c-1.65,21.27,0.58,37.98,20.44,44.97c11.68,4.11,21.68-1.67,27.16-11.44c11.56-20.61-8.97-27.02-18.6-38.13
		c-1.39-1.6-2.86-3.24-4.61-4.38c-6.58-4.26-10.12-16.81-20.06-11.34C2875.34,1837.54,2880.29,1848.39,2879.47,1853.19z
		 M3219.2,1870.07c0.1-9.24-2.45-15.62-8.04-14.72c-11.74,1.9-16.81,12.35-19.41,22.47c-1.56,6.06,4.79,8.77,10.56,8.06
		C3213.39,1884.51,3218.7,1877.54,3219.2,1870.07z"/>
	<path class="st0" d="M1170.78,1592.38c73.54,7.48,159.2-12.52,245.79-9.02c18.54,0.75,37.87-5.54,56.05-11.16
		c44.08-13.63,91-8.25,135-21.45c8.16-2.45,16.45-4.79,24.17-8.3c14.4-6.55,27.28-15.84,21.91-34.02
		c-5.34-18.07-22.62-16.27-35.09-12.86c-94.18,25.79-190.48,20.67-286.08,18.3c-60.09-1.49-120.26-8.96-180.29-15.87
		c-62.18-7.15-123.49-23-186.43-23c-17.78,0-33.12-7.51-49.55-11.74c-92.36-23.77-184.66-47.83-277.2-70.86
		c-25.7-6.4-52.24-9.36-78.29-14.45c-8.1-1.59-19.13-2.99-19.33-13.3c-0.19-9.71,6.76-17.88,16.19-22.09
		c11.83-5.29,24.24-7.68,37.4-7.19c198.21,7.42,396.73,7.74,594.74,15.08c169.12,6.27,338.02,19.34,507.51,16.83
		c6.41-0.09,12.83,0.09,19.24-0.06c14.03-0.32,32.31,0.07,32.64-17.44c0.38-20.21-19.49-16.48-32.26-15.45
		c-102.63,8.21-203.89-14.99-306.33-12.33c-123.76,3.22-247.18-13.78-371.05-7.84c-19.91,0.95-37.39-8.51-55.44-14.51
		c-53.82-17.89-108.44-27.34-165.34-31.77c-38.46-3-79.07-6.45-115.26-30.08c-48.94-31.95-109.02-34.19-163.98-50.27
		c-49.99-14.63-100.66-26.7-150.64-41.63c-38.04-11.36-79.07-14.86-117.42-27.88c-8.05-2.73-16.14-5.72-23.6-9.73
		c-6.84-3.67-12.03-9.49-9.25-18.31c2.14-6.8,7.68-10.41,14.45-10.76c10.65-0.55,22.71-3.43,31.76,0.4
		c29.22,12.35,60.64,11.36,90.8,17.03c70.84,13.32,142.38,22.93,213.71,33.56c17.98,2.68,35.29,8.58,52.43,13.34
		c91.5,25.44,186.42,29.33,279.4,44.32c89.73,14.46,179.03,33.4,270.33,41.14c46.63,3.96,95.39,3.91,141.46,19.13
		c29.47,9.73,61.36,4.89,91.87,7.45c44.58,3.74,89.45,8.29,132.69,16.8c70.47,13.88,140.72,19.95,212.18,19.84
		c14.17-0.02,28.56,8.2,42.42,13.7c4.54,1.8,11.68,8.31,10.97,10.47c-12.95,39.22,34.29,75.43,5.63,114.99
		c-9.51,13.13-4.93,18.29,9.81,20.62c25.22,3.98,46.61,13.99,58.95,38.8c5.35,10.74,15.85,15.68,28.5,18.27
		c12.21,2.5,25.78,7.21,34.63,15.4c20.7,19.15,40.96,26.9,69.48,16.95c21.13-7.36,36.68,4.14,42.73,26.98
		c18.74,70.7,14.31,140.89-0.85,211.66c-13.02,60.78-28.49,118.44-69.49,169.05c-40.51,50-152.21,81.39-203.51,67.37
		c-36.05-9.85-72.17-17.71-104.69-37.21c-24.76-14.85-26.48-29.94-1.63-44.57c22.09-13,47.99-18.16,73.02-20.51
		c57.85-5.45,104.07-31.96,146.83-69.4c60.83-53.27,73.43-126.79,87.98-199.65c2.52-12.61,4.56-30.87-13.65-34.75
		c-17.14-3.65-18.98,13.69-23.64,24.95c-10.61,25.61-19.82,51.84-31.04,77.17c-44.95,101.42-125.83,156.36-231.64,181.02
		c-120.85,28.16-231.27-2.62-338.8-54.53c-14.9-7.19-25.04-16.89-21.79-34.69c3.4-18.64,19.88-18.21,32.82-18.69
		c35.24-1.31,70.56,0.03,105.83-0.7c95.39-1.96,188.84-15.13,275.66-57.16c54.35-26.31,84.71-76.13,113.73-126.21
		c4-6.9,5.15-14.82-2.45-20.1c-8.19-5.69-13.2,2.01-19.45,5.76c-24.92,14.92-43.14,37.17-64.39,56.05
		c-39.56,35.16-88.49,57.68-140.29,66.9c-70.95,12.63-142.36,30.48-215.18,21.15c-90.1-11.55-181.99-11.99-268.49-47.33
		c-40.11-16.38-85.13-19.03-126-35.12c-15.74-6.2-37.93-9.63-34.95-30.69c3.23-22.81,25.32-25.81,45.56-25.82
		C1080.73,1592.36,1119.22,1592.38,1170.78,1592.38z"/>
	<path class="st0" d="M4726.85,1444.01c104.76,0.02,209.53,0.55,314.28-0.31c30.05-0.25,58.63,8.77,88.89,8.32
		c109.83-1.64,219.39-12.73,329.4-8.4c23.74,0.93,46.9,1.76,68.76,11.73c25.42,11.6,52.39,7.58,78.92,8.5
		c12.8,0.44,28.17,0.32,29.74,17.17c1.69,18.18-14.17,22.01-27.77,24.99c-10.49,2.29-20.9-0.81-31.47-3.2
		c-55.81-12.64-110.93-11.75-167.3,1.83c-56.49,13.61-113.17,27.13-170.6,37.74c-59.88,11.07-121.51,16-180.26,33.49
		c-19.85,5.91-39.55,7.91-59.96,7.67c-44.77-0.54-88.05,6-132.47,14.72c-60.86,11.95-124.84,9.74-187.58-1
		c-56.55-9.68-113.78-14.94-171.35-13.62c-7.32,0.17-15.95-0.27-17.7,9.67c-1.76,10.05,5.17,16.44,12.49,20.61
		c22.54,12.83,48.36,20.55,72.95,21.33c46.42,1.48,89.67,17.22,134.64,24.47c102.03,16.46,203.44,32.96,307.26,29.19
		c21.37-0.78,53.08-7.38,57.32,20.07c4.16,26.95-26.89,36.22-48.74,41.51c-73.75,17.83-147.33,35.56-222.66,47.75
		c-68.45,11.08-136.23,12.34-203.81,8.94c-93.08-4.68-182.68-28.84-261.64-81.28c-25.53-16.96-47.38-39.53-70.49-60.02
		c-10.14-8.98-20.8-18.26-33.39-7.41c-12.48,10.74-1.89,21.5,4.62,30.78c50.74,72.35,118.9,127.38,202.81,147.07
		c56.44,13.25,116.41,27.02,176.11,24.21c37.23-1.75,71.31,11.19,107.25,14.1c9.15,0.74,16.11,6.85,18.72,15.49
		c2.55,8.45-3.99,14.38-9.96,18.55c-17.32,12.07-32.99,26.94-56.1,28.83c-11.42,0.93-22.79,5.43-33.65,9.66
		c-80.33,31.25-164.68,41.78-246.75,20.15c-86.39-22.77-163.56-66.77-210.33-149.93c-18.79-33.4-40.69-64.73-47.19-103.99
		c-2.11-12.77-9.86-28.86-27.33-25.95c-16.95,2.83-13.85,19.02-14.1,31.51c-2.14,107.14,81.59,213.67,197.84,251.49
		c30.33,9.86,62.09,14.99,90.81,30.3c10,5.33,19.23,8.56,19.75,21.71c0.53,13.54-5.8,23.43-17.62,27.81
		c-66.28,24.58-133.63,49.27-204.33,20.63c-64-25.93-111.68-72.41-135.6-137.26c-27.04-73.31-36.47-150.28-34.24-228.79
		c0.74-26.26,10.41-50,15.33-74.91c3.8-19.23,24.47-25.94,43.76-25.11c21.65,0.94,39.62-4.67,54.98-20.42
		c11.25-11.54,26.5-12.93,41.84-11.92c19.13,1.26,31.6-4.35,38.53-24.99c7.39-22.03,25.87-30.03,49.01-23.03
		c13.28,4.02,26.33,8.78,39.58,12.9c11.77,3.65,25.18,5.94,30.64-7.76c5.99-15.04-6.32-20.02-18.41-23.8
		c-6.03-1.88-12.05-4.79-17.15-8.51c-16.07-11.68-27.98-30.69-19.01-46.85c13.66-24.61,27.25-45.34,11.94-74.32
		c-3.91-7.4,6.92-15.06,15.71-16.91c10.32-2.18,21.11-4.29,31.5-3.6c79.1,5.28,158.12-2.46,236.18-9.99
		c116.34-11.22,232.36-20.43,349.27-24.16c70.34-2.24,141.72-8.53,210.83-28.25c29.34-8.37,61.11-4.27,91.91-8.09
		c90.4-11.21,180.78-24.78,270.71-37.41c98.2-13.8,198.56-19.2,294.97-46.25c7.08-1.99,14.79-2.18,22.23-2.31
		c11.64-0.2,21.66,2.52,21.63,17.23c-0.03,12.79-6.71,19.53-19.27,21.13c-117.44,14.95-228.19,59.15-344.29,79.23
		c-50.93,8.81-99.05,24.04-146.43,43.11c-17.55,7.06-35.54,6.92-53.62,6.15c-45.16-1.92-89.03,1.48-131.81,18.9
		c-27.58,11.23-57.38,14.41-87.85,13.7c-177.02-4.17-353.31,20.18-530.58,13.33c-42.8-1.65-82.97-21.08-126.27-13.76
		c-8.35,1.41-17.2,0.4-25.34,2.44c-8.28,2.08-16.13,6.45-16.78,16.88c-0.63,10.02,5.01,15.67,13.58,19.43
		c14.03,6.15,28.68,7.27,43.84,7.24C4513.05,1443.87,4619.95,1443.99,4726.85,1444.01z"/>
	<path class="st0" d="M3103.27,2284.01c0,50.19-2.23,100.5,0.51,150.54c4.58,83.65,12.34,167.13,18.74,250.69
		c0.24,3.19,0.85,6.46,0.44,9.58c-9.11,70.26,16.75,133.9,37.78,198.37c15.67,48.02,5.16,63.48-44.59,63.48
		c-54.46,0.01-108.93,0.39-163.38-0.23c-36.59-0.41-54.58-20.42-37.76-50.68c28.85-51.92,23.23-109.23,36.52-163.23
		c18.39-74.69,18.38-151.3,27.16-226.86c17.42-149.82,16.55-299.46,17.01-449.44c0.07-23.27,11.85-31.35,34.02-32.16
		c72.11-2.64,73.58-1.66,73.54,70.54C3103.24,2164.41,3103.26,2224.21,3103.27,2284.01z"/>
	<path class="st0" d="M2405.01,1863.38c-3.4,38.22,4.76,81.85-6.98,125.2c-26.62,98.3-110.55,134.04-198.28,127.98
		c-11.79-0.81-20.13-7.64-23.75-18.53c-4.5-13.55,3.26-23.03,14-29.13c27.68-15.72,48.27-37.38,63.79-65.38
		c16.99-30.65,25.28-61.75,24.36-97.39c-2.08-79.99-0.92-160.06-0.74-240.1c0.1-47.32,25.75-62.9,65.31-37.88
		c31.22,19.75,52.22,44.89,56.25,86.78C2403.56,1762.84,2403.94,1810.43,2405.01,1863.38z"/>
	<path class="st0" d="M3859.68,2161.32c-53.75,6.36-118.89-44.19-144.04-111.95c-30.37-81.79-25.85-165-13.39-248.65
		c6.54-43.93,9.72-90.03,51.96-118.67c7.02-4.76,13.29-10.85,20.75-14.71c36.5-18.88,58.63-7.71,53.94,32.05
		c-8.53,72.28-5.89,144.53-7.94,216.82c-0.92,32.46,5.89,63.55,11.01,94.79c4.9,29.93,21.61,55.3,44.9,75.72
		c8.01,7.02,15.45,14.77,22.5,22.77c9.38,10.64,18.07,22.76,12.17,37.5c-6.4,15.98-22.03,14.07-35.83,14.35
		C3870.36,2161.43,3865.02,2161.34,3859.68,2161.32z"/>
	<path class="st0" d="M3091.43,1852.15c-0.01,38.42-0.7,76.85,0.2,115.25c0.73,30.85-19.32,33.8-42.29,34.46
		c-24.13,0.69-41.83-4.36-41.52-34.65c0.78-77.9,0.68-155.81-0.06-233.71c-0.29-30.85,18.25-33.51,42.12-33.63
		c24.14-0.12,42.51,3.14,41.79,33.82C3090.74,1773.16,3091.44,1812.66,3091.43,1852.15z"/>
	<path class="st1" d="M3969.89,1771.45c-0.88-1.26-1.77-2.53-2.65-3.79c1.24,0.9,2.48,1.81,3.73,2.71L3969.89,1771.45z"/>
	<path class="st1" d="M3970.96,1770.37c0.95,1.32,1.91,2.64,2.86,3.96c-1.31-0.97-2.61-1.94-3.93-2.9
		C3969.89,1771.45,3970.96,1770.37,3970.96,1770.37z"/>
</g>
</svg>
