<?xml version="1.0" encoding="utf-8"?>
<!-- Generator: Adobe Illustrator 23.0.3, SVG Export Plug-In . SVG Version: 6.00 Build 0)  -->
<svg version="1.1" id="Calque_1" xmlns="http://www.w3.org/2000/svg" xmlns:xlink="http://www.w3.org/1999/xlink" x="0px" y="0px"
	 viewBox="0 0 595 426" style="enable-background:new 0 0 595 426;" xml:space="preserve">
<style type="text/css">
	.st0{fill:#CCCCCC;}
</style>
<g>
	<path class="st0" d="M50.5,263.5c-27.57,0-50-22.43-50-50s22.43-50,50-50h494c27.57,0,50,22.43,50,50s-22.43,50-50,50H50.5z"/>
	<path class="st0" d="M544.5,164c27.29,0,49.5,22.21,49.5,49.5c0,27.29-22.21,49.5-49.5,49.5h-494C23.21,263,1,240.79,1,213.5
		C1,186.21,23.21,164,50.5,164H544.5 M544.5,163h-494C22.61,163,0,185.61,0,213.5v0C0,241.39,22.61,264,50.5,264h494
		c27.89,0,50.5-22.61,50.5-50.5v0C595,185.61,572.39,163,544.5,163L544.5,163z"/>
</g>
<g>
	<path class="st0" d="M50.5,100.5c-27.57,0-50-22.43-50-50s22.43-50,50-50h494c27.57,0,50,22.43,50,50s-22.43,50-50,50H50.5z"/>
	<path class="st0" d="M544.5,1C571.79,1,594,23.21,594,50.5c0,27.29-22.21,49.5-49.5,49.5h-494C23.21,100,1,77.79,1,50.5
		C1,23.21,23.21,1,50.5,1H544.5 M544.5,0h-494C22.61,0,0,22.61,0,50.5v0C0,78.39,22.61,101,50.5,101h494
		c27.89,0,50.5-22.61,50.5-50.5v0C595,22.61,572.39,0,544.5,0L544.5,0z"/>
</g>
<g>
	<path class="st0" d="M50.5,425.5c-27.57,0-50-22.43-50-50s22.43-50,50-50h494c27.57,0,50,22.43,50,50s-22.43,50-50,50H50.5z"/>
	<path class="st0" d="M544.5,326c27.29,0,49.5,22.21,49.5,49.5c0,27.29-22.21,49.5-49.5,49.5h-494C23.21,425,1,402.79,1,375.5
		C1,348.21,23.21,326,50.5,326H544.5 M544.5,325h-494C22.61,325,0,347.61,0,375.5v0C0,403.39,22.61,426,50.5,426h494
		c27.89,0,50.5-22.61,50.5-50.5v0C595,347.61,572.39,325,544.5,325L544.5,325z"/>
</g>
</svg>
